<?xml version="1.0" standalone="no"?>
<!DOCTYPE svg PUBLIC "-//W3C//DTD SVG 20010904//EN"
 "http://www.w3.org/TR/2001/REC-SVG-20010904/DTD/svg10.dtd">
<svg version="1.0" xmlns="http://www.w3.org/2000/svg"
 width="2000.000000pt" height="2000.000000pt" viewBox="0 0 2000.000000 2000.000000"
 preserveAspectRatio="xMidYMid meet">
<metadata>
Created by potrace 1.14, written by Peter Selinger 2001-2017
</metadata>
<g transform="translate(0.000000,2000.000000) scale(0.100000,-0.100000)"
fill="#000000" stroke="none">
<path d="M8458 14756 c-1 -2 -55 -6 -118 -10 -125 -7 -146 -9 -265 -32 -366
-70 -686 -211 -1015 -447 -475 -342 -974 -935 -1354 -1609 -66 -117 -221 -425
-265 -528 -13 -30 -34 -77 -47 -105 -99 -218 -224 -549 -313 -835 -29 -91 -58
-183 -66 -205 -14 -41 -55 -186 -82 -285 -19 -72 -74 -291 -78 -310 -2 -8 -12
-54 -24 -102 -11 -48 -23 -98 -25 -110 -3 -13 -14 -68 -26 -123 -27 -124 -24
-112 -65 -329 -41 -219 -56 -306 -70 -411 -5 -34 -16 -109 -20 -135 -2 -14
-11 -81 -20 -150 -9 -69 -17 -138 -20 -155 -2 -16 -7 -61 -10 -100 -4 -38 -8
-81 -11 -95 -2 -14 -6 -56 -9 -95 -4 -38 -8 -88 -10 -110 -21 -213 -28 -891
-12 -1080 12 -138 17 -196 23 -240 3 -22 7 -58 10 -80 5 -48 15 -113 20 -140
2 -11 6 -33 9 -50 10 -55 47 -219 62 -275 9 -30 16 -56 15 -57 0 -2 21 -67 47
-145 85 -254 139 -367 249 -528 75 -110 89 -126 195 -232 232 -231 487 -355
812 -393 58 -7 249 -7 285 0 14 2 46 7 72 9 182 22 449 96 668 188 204 85 527
274 775 452 62 45 322 250 335 265 3 3 48 44 100 91 117 104 347 334 455 454
44 49 85 94 90 100 18 20 69 81 102 121 165 207 224 284 338 435 72 96 142
191 155 210 14 19 28 40 33 45 94 112 1078 1592 1463 2201 49 78 90 141 91
140 1 -1 -9 -74 -22 -161 -13 -88 -27 -189 -30 -225 -4 -36 -9 -74 -11 -85 -5
-24 -5 -237 0 -360 4 -89 23 -167 54 -215 20 -33 63 -70 82 -71 8 0 26 -3 40
-5 14 -3 44 0 68 6 94 23 178 75 357 218 99 80 185 150 190 156 6 6 44 40 85
76 41 36 89 79 106 95 17 17 53 50 80 74 42 38 124 114 303 281 76 71 305 286
341 320 59 57 452 434 465 446 7 8 26 9 52 4 54 -9 125 -4 193 16 58 17 253
110 300 144 16 11 31 20 33 20 3 0 106 63 227 141 122 77 224 138 227 135 6
-6 -12 -66 -86 -281 -68 -197 -149 -468 -167 -559 -2 -10 -8 -33 -13 -50 -10
-30 -75 -322 -86 -381 -2 -16 -7 -41 -10 -55 -13 -58 -67 -354 -80 -440 -2
-14 -16 -101 -30 -194 -22 -137 -26 -193 -23 -305 3 -122 6 -142 29 -192 69
-147 190 -201 301 -135 59 35 156 121 204 180 21 27 44 54 49 60 9 9 42 51
102 126 214 269 409 546 610 871 150 241 589 1017 600 1058 14 55 -39 110 -93
97 -26 -7 -87 -83 -132 -166 -111 -206 -599 -1026 -710 -1195 -125 -188 -369
-526 -402 -555 -3 -3 -36 -43 -73 -90 -67 -86 -207 -213 -252 -230 -21 -8 -27
-6 -41 15 -24 37 -24 268 0 390 2 11 7 40 10 65 3 25 8 56 11 70 3 14 8 48 11
75 4 28 8 53 10 56 2 4 6 25 9 47 9 75 56 275 157 677 55 220 101 405 102 410
8 30 26 98 103 380 99 360 100 362 108 437 6 66 -5 98 -45 122 -67 39 -156 -3
-522 -248 -185 -123 -374 -226 -415 -226 -12 0 -24 4 -28 10 -3 5 15 51 41
101 139 278 273 642 330 899 2 11 7 30 10 43 16 63 31 205 28 272 -5 149 -59
245 -140 245 -103 0 -164 -74 -276 -335 -17 -38 -39 -90 -50 -115 -71 -155
-189 -507 -223 -660 -2 -8 -10 -44 -19 -80 -8 -36 -18 -81 -21 -100 -3 -19 -8
-46 -10 -60 -34 -168 -44 -277 -31 -345 3 -14 -14 -37 -58 -78 -33 -33 -133
-129 -221 -215 -89 -87 -198 -191 -244 -232 -46 -41 -93 -84 -105 -95 -13 -11
-69 -63 -126 -115 -57 -52 -115 -105 -129 -118 -14 -13 -71 -65 -126 -115 -55
-51 -120 -110 -145 -133 -25 -22 -61 -55 -80 -73 -77 -71 -399 -306 -455 -331
-82 -37 -100 -40 -125 -23 -18 13 -20 21 -15 57 9 53 9 59 39 276 15 102 28
194 30 205 2 11 7 42 10 69 4 27 13 85 21 130 7 44 17 101 20 126 4 24 8 47
10 50 1 3 6 28 10 55 10 78 71 367 105 500 17 66 32 127 34 135 13 50 43 151
76 255 47 149 53 242 19 276 -17 17 -29 20 -66 16 -49 -5 -88 -36 -128 -97
-28 -44 -111 -274 -161 -445 -28 -95 -50 -149 -83 -200 -66 -104 -126 -197
-206 -320 -156 -239 -196 -302 -398 -625 -115 -184 -234 -375 -265 -423 -85
-132 -632 -955 -670 -1007 -18 -25 -93 -130 -167 -234 -172 -242 -148 -209
-313 -428 -127 -169 -247 -324 -262 -338 -3 -3 -47 -57 -97 -122 -242 -308
-471 -546 -757 -786 -200 -168 -613 -440 -854 -561 -155 -78 -386 -159 -542
-190 -96 -19 -104 -21 -165 -28 -78 -10 -295 -10 -365 0 -153 21 -348 107
-471 205 -291 234 -443 523 -563 1068 -13 62 -32 158 -41 215 -9 57 -18 115
-20 129 -2 14 -7 57 -10 95 -4 39 -8 84 -10 101 -6 54 -18 346 -19 467 -1 89
-4 116 -13 112 -7 -2 -13 1 -14 8 -2 26 3 214 6 247 2 19 6 82 10 140 3 58 8
125 10 150 2 25 7 79 10 120 3 41 8 86 10 100 2 14 7 57 10 95 5 63 10 111 20
185 2 14 9 63 15 110 21 161 29 227 35 260 2 14 7 45 10 70 9 65 23 153 39
235 6 32 45 238 50 265 30 166 118 531 201 835 55 205 181 582 280 840 157
408 290 691 502 1066 135 237 420 642 613 870 447 527 1022 898 1520 978 36 5
92 13 125 17 64 8 326 8 362 0 11 -2 43 -8 70 -11 229 -33 458 -147 637 -316
268 -254 460 -656 511 -1070 3 -30 8 -67 10 -84 5 -36 6 -370 1 -405 -2 -14
-7 -65 -11 -114 -4 -50 -8 -97 -10 -105 -1 -9 -6 -41 -9 -72 -4 -31 -8 -66
-11 -77 -2 -11 -6 -36 -9 -56 -18 -112 -46 -185 -82 -217 -11 -9 -38 -26 -61
-38 -33 -17 -45 -29 -54 -60 -14 -46 -8 -74 24 -122 25 -38 91 -65 132 -55 83
21 169 176 209 376 14 69 27 145 30 170 2 25 7 65 10 90 5 44 8 79 23 265 14
179 9 412 -13 563 -22 159 -117 502 -174 627 -132 293 -318 533 -540 697 -207
152 -495 257 -750 274 -47 3 -90 7 -97 9 -6 2 -13 2 -15 1z m5063 -2728 c0
-52 -7 -116 -17 -150 -3 -9 -7 -25 -9 -36 -14 -77 -107 -356 -177 -532 -58
-148 -169 -402 -173 -398 -2 2 3 30 10 63 8 33 16 71 18 85 6 32 34 141 51
200 39 132 62 207 98 320 71 219 185 516 195 506 2 -2 4 -28 4 -58z"/>
<path d="M11655 11983 c-29 -8 -47 -22 -129 -101 -96 -92 -106 -107 -106 -163
0 -101 62 -119 190 -57 159 78 222 198 147 280 -18 20 -72 51 -80 47 -1 -1
-11 -4 -22 -6z"/>
</g>
</svg>
